<?xml version="1.0" encoding="UTF-8" standalone="no"?>
<!DOCTYPE svg PUBLIC "-//W3C//DTD SVG 1.1//EN"
 "http://www.w3.org/Graphics/SVG/1.1/DTD/svg11.dtd">
<!-- Generated by graphviz version 2.43.0 (0)
 -->
<!-- Title: G Pages: 1 -->
<svg width="484pt" height="230pt"
 viewBox="0.00 0.00 484.00 230.00" xmlns="http://www.w3.org/2000/svg" xmlns:xlink="http://www.w3.org/1999/xlink">
<g id="graph0" class="graph" transform="scale(1 1) rotate(0) translate(4 226)">
<title>G</title>
<polygon fill="white" stroke="transparent" points="-4,4 -4,-226 480,-226 480,4 -4,4"/>
<!-- mulle&#45;sourcetree&#45;to&#45;cmake -->
<g id="node1" class="node">
<title>mulle&#45;sourcetree&#45;to&#45;cmake</title>
<polygon fill="none" stroke="magenta" points="250.5,-0.5 250.5,-36.5 456.5,-36.5 456.5,-0.5 250.5,-0.5"/>
<text text-anchor="middle" x="353.5" y="-14.8" font-family="Times,serif" font-size="14.00" fill="magenta">mulle&#45;sourcetree&#45;to&#45;cmake</text>
</g>
<!-- mulle&#45;match&#45;to&#45;cmake -->
<g id="node2" class="node">
<title>mulle&#45;match&#45;to&#45;cmake</title>
<polygon fill="none" stroke="magenta" points="19.5,-0.5 19.5,-36.5 193.5,-36.5 193.5,-0.5 19.5,-0.5"/>
<text text-anchor="middle" x="106.5" y="-14.8" font-family="Times,serif" font-size="14.00" fill="magenta">mulle&#45;match&#45;to&#45;cmake</text>
</g>
<!-- filesystem&#45;callback -->
<g id="node3" class="node">
<title>filesystem&#45;callback</title>
<polygon fill="none" stroke="black" points="0,-88.5 0,-134.5 213,-134.5 213,-88.5 0,-88.5"/>
<text text-anchor="middle" x="106.5" y="-119.3" font-family="Times,serif" font-size="14.00">callback: source</text>
<polyline fill="none" stroke="black" points="0,-111.5 213,-111.5 "/>
<text text-anchor="middle" x="106.5" y="-96.3" font-family="Times,serif" font-size="14.00">task: mulle&#45;match&#45;to&#45;cmake</text>
</g>
<!-- filesystem&#45;callback&#45;&gt;mulle&#45;match&#45;to&#45;cmake -->
<g id="edge1" class="edge">
<title>filesystem&#45;callback&#45;&gt;mulle&#45;match&#45;to&#45;cmake</title>
<path fill="none" stroke="gray" d="M106.5,-88.47C106.5,-72.59 106.5,-51.44 106.5,-36.77"/>
<text text-anchor="middle" x="119" y="-58.8" font-family="Times,serif" font-size="14.00">run</text>
</g>
<!-- sourcetree&#45;callback -->
<g id="node4" class="node">
<title>sourcetree&#45;callback</title>
<polygon fill="none" stroke="black" points="231,-88.5 231,-134.5 476,-134.5 476,-88.5 231,-88.5"/>
<text text-anchor="middle" x="353.5" y="-119.3" font-family="Times,serif" font-size="14.00">callback: sourcetree</text>
<polyline fill="none" stroke="black" points="231,-111.5 476,-111.5 "/>
<text text-anchor="middle" x="353.5" y="-96.3" font-family="Times,serif" font-size="14.00">task: mulle&#45;sourcetree&#45;to&#45;cmake</text>
</g>
<!-- sourcetree&#45;callback&#45;&gt;mulle&#45;sourcetree&#45;to&#45;cmake -->
<g id="edge2" class="edge">
<title>sourcetree&#45;callback&#45;&gt;mulle&#45;sourcetree&#45;to&#45;cmake</title>
<path fill="none" stroke="gray" d="M353.5,-88.47C353.5,-72.59 353.5,-51.44 353.5,-36.77"/>
<text text-anchor="middle" x="366" y="-58.8" font-family="Times,serif" font-size="14.00">run</text>
</g>
<!-- mulle&#45;sde reflect -->
<g id="node5" class="node">
<title>mulle&#45;sde reflect</title>
<text text-anchor="middle" x="229.5" y="-200.3" font-family="monospace" font-size="14.00" fill="blue">mulle&#45;sde reflect</text>
</g>
<!-- mulle&#45;sde reflect&#45;&gt;filesystem&#45;callback -->
<g id="edge3" class="edge">
<title>mulle&#45;sde reflect&#45;&gt;filesystem&#45;callback</title>
<path fill="none" stroke="black" stroke-dasharray="1,5" d="M206.36,-185.98C188.99,-173.2 164.83,-155.41 144.62,-140.54"/>
<polygon fill="black" stroke="black" points="146.64,-137.69 136.52,-134.58 142.5,-143.33 146.64,-137.69"/>
<text text-anchor="middle" x="191" y="-156.8" font-family="Times,serif" font-size="14.00">run</text>
</g>
<!-- mulle&#45;sde reflect&#45;&gt;sourcetree&#45;callback -->
<g id="edge4" class="edge">
<title>mulle&#45;sde reflect&#45;&gt;sourcetree&#45;callback</title>
<path fill="none" stroke="black" stroke-dasharray="1,5" d="M252.82,-185.98C270.33,-173.2 294.7,-155.41 315.07,-140.54"/>
<polygon fill="black" stroke="black" points="317.23,-143.31 323.24,-134.58 313.1,-137.65 317.23,-143.31"/>
<text text-anchor="middle" x="307" y="-156.8" font-family="Times,serif" font-size="14.00">run</text>
</g>
</g>
</svg>
