<?xml version="1.0" encoding="UTF-8" standalone="no"?>
<!DOCTYPE svg PUBLIC "-//W3C//DTD SVG 1.1//EN"
 "http://www.w3.org/Graphics/SVG/1.1/DTD/svg11.dtd">
<!-- Generated by graphviz version 2.43.0 (0)
 -->
<!-- Title: G Pages: 1 -->
<svg width="826pt" height="305pt"
 viewBox="0.00 0.00 826.00 305.00" xmlns="http://www.w3.org/2000/svg" xmlns:xlink="http://www.w3.org/1999/xlink">
<g id="graph0" class="graph" transform="scale(1 1) rotate(0) translate(4 301)">
<title>G</title>
<polygon fill="white" stroke="transparent" points="-4,4 -4,-301 822,-301 822,4 -4,4"/>
<!-- project -->
<g id="node1" class="node">
<title>project</title>
<polygon fill="none" stroke="gray" points="397.5,-297 394.5,-301 373.5,-301 370.5,-297 330.5,-297 330.5,-261 397.5,-261 397.5,-297"/>
<text text-anchor="middle" x="364" y="-275.3" font-family="Times,serif" font-size="14.00" fill="gray">project</text>
</g>
<!-- src -->
<g id="node2" class="node">
<title>src</title>
<polygon fill="none" stroke="black" stroke-width="2" points="276,-210 273,-214 252,-214 249,-210 222,-210 222,-174 276,-174 276,-210"/>
<text text-anchor="middle" x="249" y="-188.3" font-family="Times,serif" font-size="14.00">src</text>
</g>
<!-- project&#45;&gt;src -->
<g id="edge2" class="edge">
<title>project&#45;&gt;src</title>
<path fill="none" stroke="black" d="M340.73,-260.8C320.78,-246.05 292.18,-224.92 272.24,-210.18"/>
</g>
<!-- cmake -->
<g id="node3" class="node">
<title>cmake</title>
<polygon fill="none" stroke="black" points="395,-210 392,-214 371,-214 368,-210 333,-210 333,-174 395,-174 395,-210"/>
<text text-anchor="middle" x="364" y="-188.3" font-family="Times,serif" font-size="14.00">cmake</text>
</g>
<!-- project&#45;&gt;cmake -->
<g id="edge4" class="edge">
<title>project&#45;&gt;cmake</title>
<path fill="none" stroke="black" d="M364,-260.8C364,-246.05 364,-224.92 364,-210.18"/>
</g>
<!-- .mulle&#45;sourcetree -->
<g id="node4" class="node">
<title>.mulle&#45;sourcetree</title>
<polygon fill="none" stroke="black" points="664,-210 661,-214 640,-214 637,-210 522,-210 522,-174 664,-174 664,-210"/>
<text text-anchor="middle" x="593" y="-188.3" font-family="Times,serif" font-size="14.00">.mulle&#45;sourcetree</text>
</g>
<!-- project&#45;&gt;.mulle&#45;sourcetree -->
<g id="edge3" class="edge">
<title>project&#45;&gt;.mulle&#45;sourcetree</title>
<path fill="none" stroke="black" d="M397.79,-265.46C437.23,-250.82 502.66,-226.53 546.78,-210.15"/>
</g>
<!-- mulle&#45;match&#45;to&#45;cmake -->
<g id="node12" class="node">
<title>mulle&#45;match&#45;to&#45;cmake</title>
<polygon fill="none" stroke="magenta" stroke-width="2" points="272,-123 104,-123 104,-87 278,-87 278,-117 272,-123"/>
<polyline fill="none" stroke="magenta" stroke-width="2" points="272,-123 272,-117 "/>
<polyline fill="none" stroke="magenta" stroke-width="2" points="278,-117 272,-117 "/>
<text text-anchor="middle" x="191" y="-101.3" font-family="Times,serif" font-size="14.00" fill="magenta">mulle&#45;match&#45;to&#45;cmake</text>
</g>
<!-- src&#45;&gt;mulle&#45;match&#45;to&#45;cmake -->
<!-- _Headers.cmake -->
<g id="node6" class="node">
<title>_Headers.cmake</title>
<polygon fill="none" stroke="black" stroke-width="2" points="128,-36 0,-36 0,0 134,0 134,-30 128,-36"/>
<polyline fill="none" stroke="black" stroke-width="2" points="128,-36 128,-30 "/>
<polyline fill="none" stroke="black" stroke-width="2" points="134,-30 128,-30 "/>
<text text-anchor="middle" x="67" y="-14.3" font-family="Times,serif" font-size="14.00">_Headers.cmake</text>
</g>
<!-- cmake&#45;&gt;_Headers.cmake -->
<g id="edge5" class="edge">
<title>cmake&#45;&gt;_Headers.cmake</title>
<path fill="none" stroke="black" d="M356.12,-173.64C341.19,-143.08 305.59,-80.41 254,-54 209.51,-31.23 192.07,-45.46 143,-36 140.08,-35.44 137.1,-34.85 134.09,-34.23"/>
</g>
<!-- _Sources.cmake -->
<g id="node7" class="node">
<title>_Sources.cmake</title>
<polygon fill="none" stroke="black" stroke-width="2" points="277.5,-36 152.5,-36 152.5,0 283.5,0 283.5,-30 277.5,-36"/>
<polyline fill="none" stroke="black" stroke-width="2" points="277.5,-36 277.5,-30 "/>
<polyline fill="none" stroke="black" stroke-width="2" points="283.5,-30 277.5,-30 "/>
<text text-anchor="middle" x="218" y="-14.3" font-family="Times,serif" font-size="14.00">_Sources.cmake</text>
</g>
<!-- cmake&#45;&gt;_Sources.cmake -->
<g id="edge6" class="edge">
<title>cmake&#45;&gt;_Sources.cmake</title>
<path fill="none" stroke="black" d="M363.41,-173.77C361.5,-145.08 353.57,-87.35 321,-54 314.93,-47.79 299.92,-41.52 283.18,-36.04"/>
</g>
<!-- _Dependencies.cmake -->
<g id="node8" class="node">
<title>_Dependencies.cmake</title>
<polygon fill="none" stroke="black" stroke-width="2" points="468.5,-36 301.5,-36 301.5,0 474.5,0 474.5,-30 468.5,-36"/>
<polyline fill="none" stroke="black" stroke-width="2" points="468.5,-36 468.5,-30 "/>
<polyline fill="none" stroke="black" stroke-width="2" points="474.5,-30 468.5,-30 "/>
<text text-anchor="middle" x="388" y="-14.3" font-family="Times,serif" font-size="14.00">_Dependencies.cmake</text>
</g>
<!-- cmake&#45;&gt;_Dependencies.cmake -->
<g id="edge7" class="edge">
<title>cmake&#45;&gt;_Dependencies.cmake</title>
<path fill="none" stroke="black" d="M366.39,-173.88C370.99,-140.91 381.03,-68.97 385.62,-36.05"/>
</g>
<!-- _Libraries.cmake -->
<g id="node9" class="node">
<title>_Libraries.cmake</title>
<polygon fill="none" stroke="black" stroke-width="2" points="625,-36 493,-36 493,0 631,0 631,-30 625,-36"/>
<polyline fill="none" stroke="black" stroke-width="2" points="625,-36 625,-30 "/>
<polyline fill="none" stroke="black" stroke-width="2" points="631,-30 625,-30 "/>
<text text-anchor="middle" x="562" y="-14.3" font-family="Times,serif" font-size="14.00">_Libraries.cmake</text>
</g>
<!-- cmake&#45;&gt;_Libraries.cmake -->
<g id="edge8" class="edge">
<title>cmake&#45;&gt;_Libraries.cmake</title>
<path fill="none" stroke="black" d="M374.74,-173.89C396.72,-139.07 445.71,-62.55 457,-54 467.65,-45.94 480.25,-39.67 492.97,-34.83"/>
</g>
<!-- config -->
<g id="node5" class="node">
<title>config</title>
<polygon fill="none" stroke="black" stroke-width="2" points="702.5,-36 649.5,-36 649.5,0 708.5,0 708.5,-30 702.5,-36"/>
<polyline fill="none" stroke="black" stroke-width="2" points="702.5,-36 702.5,-30 "/>
<polyline fill="none" stroke="black" stroke-width="2" points="708.5,-30 702.5,-30 "/>
<text text-anchor="middle" x="679" y="-14.3" font-family="Times,serif" font-size="14.00">config</text>
</g>
<!-- .mulle&#45;sourcetree&#45;&gt;config -->
<g id="edge1" class="edge">
<title>.mulle&#45;sourcetree&#45;&gt;config</title>
<path fill="none" stroke="black" d="M618.18,-173.79C634.01,-161.54 653.38,-143.64 664,-123 678.35,-95.1 680.19,-57.74 679.85,-36.23"/>
</g>
<!-- mulle&#45;match&#45;to&#45;c -->
<g id="node10" class="node">
<title>mulle&#45;match&#45;to&#45;c</title>
<polygon fill="none" stroke="black" stroke-width="2" points="812,-297 682,-297 682,-261 818,-261 818,-291 812,-297"/>
<polyline fill="none" stroke="black" stroke-width="2" points="812,-297 812,-291 "/>
<polyline fill="none" stroke="black" stroke-width="2" points="818,-291 812,-291 "/>
<text text-anchor="middle" x="750" y="-275.3" font-family="Times,serif" font-size="14.00">mulle&#45;match&#45;to&#45;c</text>
</g>
<!-- _project&#45;public.h -->
<g id="node11" class="node">
<title>_project&#45;public.h</title>
<polygon fill="none" stroke="black" stroke-width="2" points="811.5,-210 682.5,-210 682.5,-174 817.5,-174 817.5,-204 811.5,-210"/>
<polyline fill="none" stroke="black" stroke-width="2" points="811.5,-210 811.5,-204 "/>
<polyline fill="none" stroke="black" stroke-width="2" points="817.5,-204 811.5,-204 "/>
<text text-anchor="middle" x="750" y="-188.3" font-family="Times,serif" font-size="14.00">_project&#45;public.h</text>
</g>
<!-- mulle&#45;match&#45;to&#45;c&#45;&gt;_project&#45;public.h -->
<g id="edge9" class="edge">
<title>mulle&#45;match&#45;to&#45;c&#45;&gt;_project&#45;public.h</title>
<path fill="none" stroke="black" stroke-dasharray="1,5" d="M750,-260.8C750,-249.16 750,-233.55 750,-220.24"/>
<polygon fill="black" stroke="black" points="753.5,-220.18 750,-210.18 746.5,-220.18 753.5,-220.18"/>
<text text-anchor="middle" x="771.5" y="-231.8" font-family="Times,serif" font-size="14.00"> write</text>
</g>
<!-- mulle&#45;match&#45;to&#45;cmake&#45;&gt;src -->
<g id="edge15" class="edge">
<title>mulle&#45;match&#45;to&#45;cmake&#45;&gt;src</title>
<path fill="none" stroke="black" stroke-dasharray="1,5" d="M184.38,-123.31C181.63,-133.48 180.25,-146.23 186,-156 192.04,-166.26 202.29,-173.73 212.78,-179.06"/>
<polygon fill="black" stroke="black" points="211.42,-182.29 221.97,-183.22 214.3,-175.91 211.42,-182.29"/>
<text text-anchor="middle" x="204.5" y="-144.8" font-family="Times,serif" font-size="14.00"> read</text>
</g>
<!-- mulle&#45;match&#45;to&#45;cmake&#45;&gt;_Headers.cmake -->
<g id="edge10" class="edge">
<title>mulle&#45;match&#45;to&#45;cmake&#45;&gt;_Headers.cmake</title>
<path fill="none" stroke="black" stroke-dasharray="1,5" d="M165.91,-86.8C147.08,-73.9 121.12,-56.1 100.52,-41.98"/>
<polygon fill="black" stroke="black" points="102.28,-38.94 92.06,-36.18 98.33,-44.72 102.28,-38.94"/>
<text text-anchor="middle" x="158.5" y="-57.8" font-family="Times,serif" font-size="14.00"> write</text>
</g>
<!-- mulle&#45;match&#45;to&#45;cmake&#45;&gt;_Sources.cmake -->
<g id="edge11" class="edge">
<title>mulle&#45;match&#45;to&#45;cmake&#45;&gt;_Sources.cmake</title>
<path fill="none" stroke="black" stroke-dasharray="1,5" d="M196.46,-86.8C200.2,-75.05 205.22,-59.24 209.47,-45.84"/>
<polygon fill="black" stroke="black" points="212.85,-46.77 212.54,-36.18 206.18,-44.65 212.85,-46.77"/>
<text text-anchor="middle" x="228.5" y="-57.8" font-family="Times,serif" font-size="14.00"> write</text>
</g>
<!-- mulle&#45;sourcetree&#45;to&#45;cmake -->
<g id="node13" class="node">
<title>mulle&#45;sourcetree&#45;to&#45;cmake</title>
<polygon fill="none" stroke="magenta" stroke-width="2" points="649,-123 449,-123 449,-87 655,-87 655,-117 649,-123"/>
<polyline fill="none" stroke="magenta" stroke-width="2" points="649,-123 649,-117 "/>
<polyline fill="none" stroke="magenta" stroke-width="2" points="655,-117 649,-117 "/>
<text text-anchor="middle" x="552" y="-101.3" font-family="Times,serif" font-size="14.00" fill="magenta">mulle&#45;sourcetree&#45;to&#45;cmake</text>
</g>
<!-- mulle&#45;sourcetree&#45;to&#45;cmake&#45;&gt;config -->
<g id="edge16" class="edge">
<title>mulle&#45;sourcetree&#45;to&#45;cmake&#45;&gt;config</title>
<path fill="none" stroke="black" stroke-dasharray="1,5" d="M577.92,-86.96C586.54,-81.27 596.2,-74.88 605,-69 618.2,-60.18 632.68,-50.42 645.3,-41.88"/>
<polygon fill="black" stroke="black" points="647.38,-44.7 653.7,-36.19 643.46,-38.9 647.38,-44.7"/>
<text text-anchor="middle" x="644.5" y="-57.8" font-family="Times,serif" font-size="14.00"> read</text>
</g>
<!-- mulle&#45;sourcetree&#45;to&#45;cmake&#45;&gt;_Dependencies.cmake -->
<g id="edge12" class="edge">
<title>mulle&#45;sourcetree&#45;to&#45;cmake&#45;&gt;_Dependencies.cmake</title>
<path fill="none" stroke="black" stroke-dasharray="1,5" d="M518.81,-86.8C493.16,-73.51 457.5,-55.02 429.89,-40.71"/>
<polygon fill="black" stroke="black" points="431.35,-37.52 420.86,-36.03 428.13,-43.74 431.35,-37.52"/>
<text text-anchor="middle" x="501.5" y="-57.8" font-family="Times,serif" font-size="14.00"> write</text>
</g>
<!-- mulle&#45;sourcetree&#45;to&#45;cmake&#45;&gt;_Libraries.cmake -->
<g id="edge13" class="edge">
<title>mulle&#45;sourcetree&#45;to&#45;cmake&#45;&gt;_Libraries.cmake</title>
<path fill="none" stroke="black" stroke-dasharray="1,5" d="M554.02,-86.8C555.39,-75.16 557.23,-59.55 558.8,-46.24"/>
<polygon fill="black" stroke="black" points="562.29,-46.52 559.98,-36.18 555.33,-45.7 562.29,-46.52"/>
<text text-anchor="middle" x="579.5" y="-57.8" font-family="Times,serif" font-size="14.00"> write</text>
</g>
</g>
</svg>
